<?xml version="1.0" encoding="UTF-8"?>
<svg id="Logo-horizontal-white" xmlns="http://www.w3.org/2000/svg" version="1.1" viewBox="0 0 300 300">
  <!-- Generator: Adobe Illustrator 29.7.1, SVG Export Plug-In . SVG Version: 2.1.1 Build 8)  -->
  <defs>
    <style>
      .st0 {
        fill: #a0e628;
      }
    </style>
  </defs>
  <path class="st0" d="M118,201.6c-.7,0-1.5-.2-2.1-.7-1.1-.8-1.6-2.1-1.4-3.3l4.7-34.3-23.3-23.1c-1-.9-1.3-2.3-.9-3.6s1.5-2.2,2.8-2.4l31.9-4.7c16-30.8,17.1-30.9,19.4-31.1q2.5-.2,12.1,16.8c3.1,5.5,6.2,11,7.6,13.6l33.1,5.4c1.3.2,2.4,1.1,2.8,2.4s0,2.7-.9,3.6l-23.3,23.1,4.7,34.3c.2,1.3-.4,2.6-1.4,3.4-1.1.8-2.5.9-3.6.3l-29.8-14.8-31,14.8c-.5.2-1,.3-1.5.3ZM106,140.2l19.5,19.4c.8.8,1.2,1.9,1,3l-4.1,29.5,26.6-12.7c1-.5,2.1-.5,3.1,0l25.4,12.6-4-29.4c-.2-1.1.2-2.2,1-3l19.6-19.5-27.9-4.6c-1.1-.2-2-.8-2.5-1.8-4.3-7.7-10.7-19.2-14.3-25.3-3.3,5.6-9,16.2-14,26-.5,1-1.5,1.7-2.6,1.9l-26.7,4Z"/>
  <path class="st0" d="M66.8,57.8c14.6-14.2,34.4-4.3,50.3-13.6,14.2-8.4,21.1-22,41-16.5,9.5,2.6,16.8,11.7,24.8,16.5,17.4,10.4,38.7-2.8,53.7,17.8,6.8,9.4,5.5,24.9,10.9,34.4,5.1,9.1,20.4,17.2,24.9,27.5,10.1,22.9-12.4,35.2-11.6,55.9.6,15.2,7.3,26.3-4.1,40.3-10.1,12.5-28,11.1-38.1,23.4-8.4,10.3-11.2,23.8-25.8,28.6-17.9,5.9-31.2-8.2-47.2-5.9-13.8,2-23,10.9-38.6,5.9-14.9-4.9-17.5-18.8-26.2-29.2-10-11.9-28.5-10.3-38.5-23.9-10.2-13.9-3.8-24.3-3.2-39.1.9-20.9-21.7-32.8-11.6-55.9,4.5-10.2,19.8-18.4,24.9-27.5,6.5-11.5,3.4-28,14.2-38.6ZM149.7,34.7c-13.2.3-22.9,15.4-34.4,19.8-12.1,4.6-30.1-.3-40.3,7-11,7.9-9.2,26.6-15.1,38.3-7.3,14.3-28.4,19.7-26.6,38.6,1,10.5,12.2,22,13.7,32.6,1.8,12.3-5,28.6-.3,39.6,5.6,13,23.9,13.5,34.3,21.1,11,8,15.6,27.4,27.4,32,14.3,5.6,29.6-7.2,45.1-5.8,13,1.2,25.1,11.3,38.8,5.5,11.1-4.7,16-23.9,26.7-31.7,11.5-8.4,34-8.6,35.8-26.6,1.1-11.2-3.4-23-1.8-34,1.8-12.4,15-23.8,13.7-37.4-1.3-14.2-19.8-21-26.3-33.2-6.3-11.8-4.4-31-15.4-38.9-9.8-7-27-2.8-38.7-6.6-12.6-4.1-22.9-20.5-36.6-20.2Z"/>
  <path class="st0" d="M149.9,236.9c0,0-.2,0-.3,0-31.2,0-58.9-16.2-74-43.1-14.3-25.4-14.6-56.1-.8-82.1,13.7-25.7,38.9-42.5,67.6-44.8h0c32.2-2.7,61.9,12.1,79.3,39.4,17.3,27.1,18.1,60,2.2,88-15.2,26.7-42.9,42.7-74,42.7ZM143.1,73.9h0c-26.2,2.2-49.4,17.5-61.9,41.1-12.7,23.8-12.4,52,.7,75.3,13.8,24.7,39.2,39.4,67.9,39.5h.2c28.5,0,53.9-14.6,67.9-39.1,14.6-25.6,13.9-55.8-2-80.7-16-25.1-43.2-38.6-72.7-36.1Z"/>
</svg>